<?xml version="1.0" encoding="utf-8"?>
<!-- Generator: Adobe Illustrator 25.3.0, SVG Export Plug-In . SVG Version: 6.00 Build 0)  -->
<svg version="1.1" id="Capa_1" xmlns="http://www.w3.org/2000/svg" xmlns:xlink="http://www.w3.org/1999/xlink" x="0px" y="0px"
	 viewBox="0 0 561.64 527.4" style="enable-background:new 0 0 561.64 527.4;" xml:space="preserve">
<style type="text/css">
	.st0{fill:#265894;}
	.st1{fill:#CBD5E5;}
	.st2{fill:#688AB4;}
	.st3{fill:#C8D2E3;}
	.st4{fill:#FFFFFF;}
	.st5{fill:#FAFAFC;}
	.st6{fill:#F8F9FC;}
	.st7{fill:#F2F5F9;}
	.st8{fill:#B5C2D9;}
	.st9{fill:#C6D1E2;}
	.st10{fill:#295B96;}
</style>
<g>
	<path class="st0" d="M201.72,328.1c14.37,14.33,30.64,17.02,48.66,7.67c7.79-4.04,15.74-7.68,23.29-12.31
		c7.9-4.84,17.02-3.94,25.61-0.27c4.77,3.28,9.88,6.03,14.58,9.4c13.04,7.77,25.03,3.29,35.87-4.29c14.01-9.79,29.83-12.27,42-1.26
		c17.91,16.21,34.02,18.01,52.98,2.22c6.65-5.54,15.24-10.64,25.44-8.38c4.26,0.94,6.23-2.39,8.32-5.48
		c20.68-30.53,35.02-63.68,41.23-100.17c3.83-22.45,6.07-44.8,0.41-67.48c-2.1-8.43-5.07-9.79-11.22-4.83
		c-26.43,21.32-54.41,40.47-82.62,59.28c-0.3,0.2-0.58,0.46-0.91,0.56c-17.48,5.75-25.42,16.67-22.91,36.07
		c1.15,8.89-13.05,18.33-25.21,19.64c-0.71,0.08-1.46,0.16-2.15,0.05c-14.71-2.42-26.42,2.53-37.3,12.72
		c-7.65,7.17-16.94,13.04-28.8,11.59c-9.69-1.18-16.21-9.3-15.8-20.68c0.38-10.33,9.75-20.97,18.29-20.76
		c2.69,0.07,5.14,0.83,5.82,3.73c0.53,2.29-0.45,4.07-2.75,5.22c-2.56,1.27-5.14,2.66-7.33,4.46c-4.25,3.51-3.8,8.28-2.43,12.89
		c1.42,4.79,5.69,3.31,9.09,3.6c6.38,0.54,11.02-3.26,14.89-7.27c1.99-2.05,4-4.07,6.3-5.52c8.6-5.41,12.29-11.7,10.33-22.91
		c-2.52-14.48,3.41-27.28,14.81-37.06c5.63-4.84,23.49-4.97,29.31,0.74c6.56,6.43,11.43,5.27,18.16-0.13
		c6.86-5.51,15.31-9,22.92-13.6c33.35-20.16,63.06-45.21,92.95-69.99c2.76-2.29,5.68-4.4,8.49-6.63c2.05-1.62,3.99-1.36,5.78,0.33
		c2.05,1.94,3.23,5.32,1.13,6.67c-13,8.3-4.76,19.2-2.28,27.7c6.05,20.74,4.51,41.74,2.15,62.05c-2.84,24.41-9.32,48.59-19.71,71.29
		c-11.59,25.33-25.07,49.38-42.35,71.5c-29.71,38.03-63.59,71.3-101.92,100.68c-27.41,21-55.12,41.27-84.69,59.05
		c-8.62,5.18-15.78,4.71-24.74-0.17c-26.99-14.71-51.8-32.84-76.02-51.28c-36.08-27.47-69.91-58.06-98.75-93.39
		c-22.85-27.99-42.8-58.14-56.01-92.03C19.86,233.4,11.59,193.9,17.16,153.29c3.3-24.05,12.53-46.94,29.13-65.81
		c7.97-7.34,13.18-17.18,21.72-23.98c9.89-9.09,10.05-12.54,1.22-25.38c-6.29-9.15-5.94-11.75,4.22-15.53
		c20.41-7.6,41.12-5.18,62.09-1.73c16.09,2.65,30.75,9.64,47.41,11.37c23.32,2.42,43.79,15.1,63.13,28.5
		c10.73,7.44,18.74,17.39,25.92,28.06c3.9,5.79,7.6,7.19,11.76,0.48c15.74-25.34,40.13-39.77,66.45-50.85
		c20.55-8.65,42.62-10.2,64.9-8.28c12.87,1.11,25.61,3.02,36.87,9.41c22.18,12.59,44.17,25.65,58.34,48.1
		c2.68,4.25,4.22,8.35-0.34,12.52c-4.73,4.33-8.42,2.11-12.09-1.47c-11.68-11.37-22-24.12-35.98-33.13
		c-32.4-20.88-66.77-20.23-102.24-10.64c-25.48,6.89-44.61,22.88-60.63,42.92c-5.74,7.18-10.9,15.33-14.15,23.87
		c-3.04,7.97,2.71,15.96,5.01,23.56c5.4,17.82,7.84,35.69,6.97,54.21c-0.27,5.65-1.94,10.85-4.88,15.22
		c-3.57,5.31-7.47,9.58-15.87,5.27c-7.22-3.7-14.51-8.85-24.26-9.11c1.53,7.19,7.64,10.03,10.75,14.97c2.84,4.51,5.59,9,2.08,13.8
		c-3.38,4.61-8.53,6.56-14.38,4.92c-10.98-3.08-21.2-7.31-31.06-13.6c-15.02-9.59-31.62-16.66-47.17-25.47
		c-12.5-7.09-25.17-13.07-39.31-16.45c-34-8.12-49.11,7.73-57.95,36.7c-2.98,9.75-4.85,20.16-4.52,30.8
		c0.42,13.82,3.05,18.16,16.82,18.66c13.33,0.49,25.99,5.75,39.44,4.61c4.42-0.37,7.71,2.04,9.6,5.76c1.99,3.9-1.97,5.52-3.77,8
		c-5.92,8.14-16.02,10.32-23.29,16.58c-3.51,3.02-7.59,5.36-10.36,9.25c-4.86,6.8-4.83,14.86-2.17,21.61
		c2.6,6.61,10.32,3.55,15.52,2.88c13.65-1.76,25.92-7.98,38.24-13.8c11.7-10.61,25.9-11.14,40.44-9.87
		C195.73,320.67,198.12,325.39,201.72,328.1z"/>
	<path class="st1" d="M201.72,328.1c-8.71-8.87-19.82-7.55-30.59-6.9c-7.83,0.48-12.65,8.71-20.78,8.91
		c0.92-7.61,8.21-7.92,12.8-9.18c11.48-3.13,23.5-4.81,34.9,1.36C200.39,323.56,202.14,325.11,201.72,328.1z"/>
	<path class="st2" d="M68.01,63.5c-6.73,8.46-12.14,18.12-21.72,23.98C51.94,78.04,57.44,68.46,68.01,63.5z"/>
	<path class="st3" d="M313.86,332.58c-5.74-1.77-11.59-3.35-14.58-9.4C306.87,322.07,309.72,328.33,313.86,332.58z"/>
	<path class="st4" d="M240.69,229.9c-14.03-7.66-27.62-16.33-42.23-22.67c-12.16-5.28-16.08-15.41-17.05-26
		c-1.2-13.21-2.72-26.79,3.53-40.03c4.1-8.68,9.7-14.9,17.76-18.92c4.33-2.16,5.24-4.88,3.55-8.49c-1.85-3.97-4.87-2.48-8.14-1.06
		c-19.1,8.31-25.55,25.02-28.23,43.63c-1.21,8.41-1.66,17.37,0.77,25.75c2.44,8.41-1.62,7.82-6.96,5.79
		c-11.01-4.18-22.22-7.33-33.74-10.05c-31.74-7.51-52.28,8.66-61.97,34.95c-6.26,16.97-9.22,34.53-8.7,52.68
		c0.09,3.02,1.6,7.6-2.08,8.72c-5.16,1.57-3.7-3.98-4.69-6.44c-17.73-43.88-27.71-88.73-12.06-135.35
		c4.56-13.59,11.83-26.67,21.63-37.47c17.07-18.83,35.31-35.82,61.33-42.42c24.85-6.31,49.02-4.33,73.14,2.21
		c22.25,6.03,39.96,19.47,55.24,36.3c12.73,14.02,19.53,31.04,25.26,48.88c5.99,18.63,10.15,37.3,9.01,56.95
		c-0.81,14.04-2.97,15.73-15.06,9.23c-12.79-6.88-24.59-16.05-40.36-14.23c-5.86,8.86,0.56,14.96,5.02,21.29
		c2.21,3.14,5.47,5.5,8.07,8.38C247.95,226.19,246.84,228.99,240.69,229.9z"/>
	<path class="st4" d="M279.61,446.41c0.75-0.75,1.39-1.7,2.28-2.21c3.92-2.21,8.4-4.72,5.11-9.84c-3.02-4.71-7.18-1.58-10.21,0.8
		c-13.59,10.67-26.64,11.75-40.84,0.36c-9.46-7.59-20.17-3.4-29.45,1.52c-6.22,3.29-10.28,2.17-15.41-1.77
		c-27.6-21.16-51.87-45.92-76.52-70.28c-4.77-4.71-5.56-7.5,2.5-10.17c14.85-4.92,29.29-11.1,43.76-17.11
		c14.61-6.07,27.82-6.27,41.08,4.41c16.08,12.95,33.9,13.63,52.15,3.56c6.85-3.77,13.93-7.37,21.3-9.88
		c9.51-3.24,19.21-2.76,27.7,3.4c15.57,11.28,30.97,9.93,47.27,1.19c16.22-8.7,32-10.21,47.19,4.04
		c11.85,11.12,22.88,11.07,37.26,3.05c6.86-3.83,13.82-7.48,20.72-11.23c2-1.08,4.33-1.89,6.01-0.19c2.07,2.1-0.39,4.14-1.46,5.47
		c-15.64,19.34-29.17,40.94-55.13,48.89c-5.96,1.82-10.26,2.94-15.43-1.61c-16.38-14.42-33.8-15.99-51.87-2.94
		c-7.52,5.43-14.09,4.51-21.76-0.85c-16.91-11.82-31.27-10.66-47.22,2.29c-3.83,3.11-7.38,7.04-4.81,11.8
		c3.35,6.22,7.45,0.6,10.83-0.93c4.84-2.2,9.42-5.05,13.95-7.86c4.37-2.72,8.6-3.37,12.54,0.42c17.58,16.91,35.48,13.41,53.08,0.42
		c5.54-4.09,9.47-3.62,15.23-0.29c7.62,4.4,13.85,11.08,23.38,12.7c6.98,1.19,2.99,5.52,0.08,8.16
		c-11.09,10.03-22.93,19.14-34.53,28.55c-21.02,17.07-44.58,30.36-66.07,46.7c-12.81,9.74-18.69,9.63-29.99-0.86
		c-11.43-10.6-25.99-16.12-37.74-25.96c-1.34-1.12-3.2-1.62-4.57-2.72c-3.57-2.86-8.61-5.89-5.58-11.13
		c2.65-4.6,8.52-4.16,12.78-2.61c5.29,1.92,10.81,4.59,14.81,8.43c7.8,7.48,15.78,7.11,24.6,3.03
		C271.54,453.12,275.81,450.11,279.61,446.41z"/>
	<path class="st5" d="M355.76,231.71c0.01-16.17,4.28-22.54,15.61-23.28c14.99-0.99,21.21,4.11,21.89,17.92
		c0.69,14.03-5.67,20.62-20.4,21.11C355.81,248.02,355.75,247.97,355.76,231.71z"/>
	<path class="st6" d="M73.76,289.14c-0.67-4.51,1.32-7.51,5.85-5.17c8.13,4.2,16.86,2.37,25.22,3.84c2.31,0.41,6.11-0.59,6.54,1.98
		c0.4,2.35-1.1,5.94-2.98,7.61c-7.4,6.58-15.82,11.73-21.37,20.66c-2.53,4.07-6.29-0.74-7.57-3.94
		C76.26,306.15,73.3,298.06,73.76,289.14z"/>
	<path class="st7" d="M122.04,33.47c-10.53,2.63-19.95,5.78-27.7,12.67c-2.23,1.98-6.73,1.9-8.72-1.27
		c-2.56-4.06-4.19-8.71-6.1-13.16c-0.1-0.22,0.86-1.01,1.42-1.39C85.46,27.25,115.55,29.06,122.04,33.47z"/>
	<path class="st8" d="M240.69,229.9c3.51-2.61,5.56-5.09,0.89-8.83c-5-4-9.44-8.86-12.08-14.65c-2.11-4.63-6.23-10.31,1.16-14.56
		c-4.37,16.1,9.52,22.16,17.26,31.64c2.52,3.09,11.05,4.09,6.07,9.77C250.07,237.74,244.23,234.88,240.69,229.9z"/>
	<path class="st9" d="M279.61,446.41c-2.98,4.92-5.61,10.37-12.98,8.74C268.8,449.03,274.93,448.8,279.61,446.41z"/>
	<path class="st10" d="M246.73,131.12c3.21,0.15,5.05,1.97,5.31,5.25c0.28,3.51-1.56,5.18-4.99,5.33c-3.11,0.14-4.5-1.4-4.57-4.41
		C242.41,134.26,242.75,131.54,246.73,131.12z"/>
</g>
</svg>
